<svg version="1" xmlns="http://www.w3.org/2000/svg" width="808" height="808" viewBox="0 0 606.000000 606.000000"><path d="M475 1.6c-1.9.8-4.3 1.7-5.2 2-1 .4-1.8 1-1.8 1.5s-.4.9-1 .9c-1.9 0-7.8 6.5-10 11-3.4 6.6-3.9 16.4-1.1 21.8 1.1 2.3 2.1 4.7 2.1 5.5 0 .7.8 2.1 1.8 3 6.1 5.8 7.3 6.7 8.7 6.7.8 0 1.5.4 1.5 1 0 .5 1.4 1 3 1 1.7 0 3 .4 3 1s3.3 1 8 1 8-.4 8-1 1.1-1 2.5-1 2.5-.3 2.5-.8c0-.4 1.3-1.3 3-2 1.6-.7 3.2-2.2 3.5-3.3.4-1 1.3-1.9 2-1.9 1.8 0 5.5-8.4 5.5-12.5 0-1.9.5-3.5 1.1-3.7 1.3-.4-1.9-15.8-3.3-15.8-.4 0-.8-.5-.8-1.1 0-1.5-9.1-10.9-10.5-10.9-.6 0-2.8-.9-5-2-4.6-2.3-12.2-2.5-17.5-.4zM504.5 68.3c-12.4 3.8-20.7 13.7-22 26.3-.5 5-.1 7.1 2.5 14.4 12.5 33.8 18.5 55.3 24.4 86.5 5.1 26.9 6.6 41.9 6.6 65.1 0 31.2-2.8 52.2-10.5 79.4-10.4 36.3-26.4 64.3-49.1 86-24.6 23.5-50.8 37.8-80.2 43.9l-8.7 1.8 8.1 2.6c17.7 5.6 45 11.2 72.3 14.6l15.4 2 4.6-3.2c7.2-4.9 20.7-17 31.4-28.1 31.7-32.9 49.4-65.7 62.2-115.2 19.9-77 13.1-168.2-18.7-249.7-4-10.4-6-14.1-9.5-17.8-7.3-7.8-19.4-11.4-28.8-8.6z"/><path d="M317.5 127.6c-1.6.2-7 .9-12 1.5-53.8 6.5-114.8 39.7-166.3 90.3-39.4 38.8-71.1 85.2-93.8 137.1-4.2 9.7-4.8 11.8-4.8 18 0 11.8 5.7 20.9 16.7 26.7 3.3 1.8 5.9 2.3 12.2 2.3 14.5 0 23-6.4 30-22.5 7.6-17.6 27.7-54.8 40.1-74.2 32.2-50.2 77.9-90.4 127.1-111.7 25.9-11.3 44.7-15.4 70.8-15.4 28.3-.1 50 4.2 71.8 14.2 23.1 10.6 44.8 29 59.1 50 3 4.5 3.6 4.9 3.6 2.9 0-13.5-14.7-87-17.9-89.5-3.4-2.6-25.2-13.4-33.7-16.7-10.8-4.2-28.6-9-41.4-11.2-9-1.5-53.7-2.9-61.5-1.8z"/><path d="M341.5 225c-2.2.5-6.1.9-8.7.9-2.6.1-5 .5-5.3 1.1-.3.5-2.2 1-4.1 1-2.1 0-3.3.4-2.9 1 .4.6-.5 1-2 1-3.2 0-10.5 2.2-10.5 3.2 0 .5-.7.8-1.5.8-1.5 0-5.4 1.9-6.5 3.1-.3.3-2.2 1.3-4.3 2.3-2.1 1-4.1 2.4-4.4 3.2-.3.8-1.1 1.4-1.9 1.4-.8 0-1.4.4-1.4 1 0 .5-.6 1-1.3 1-.8 0-3.8 2.2-6.7 5-2.9 2.7-5.7 5-6.1 5-.3 0-1.2 1.3-1.9 3-.7 1.6-1.9 3-2.6 3-.8 0-1.4.8-1.4 1.8s-.9 2.4-2 3.2c-1.1.8-2 2.2-2 3.1 0 .9-.7 1.9-1.5 2.3-.8.3-1.5 1.2-1.5 2s-.4 1.6-.9 1.8c-1.3.5-8.1 14.5-8.1 16.8 0 1.2-.7 3.4-1.5 5-1.9 3.8-4.5 19.8-4.5 28.3 0 10.7 5.5 36.6 8.1 38.2.5.4.9 1.5.9 2.6 0 2.1 4.1 10.2 6.6 13 .8.8 1.4 1.9 1.4 2.3 0 .8.8 1.8 7.2 8.8 2.7 2.9 5.1 6 5.4 7 .3 1 1.1 1.8 1.7 1.8.7 0 1.9.9 2.7 2 .8 1.1 1.9 2 2.5 2 .6 0 1.7.9 2.5 2s2 2 2.7 2c.7 0 1.3.4 1.3 1 0 .5.7 1 1.5 1s1.5.4 1.5 1c0 .5.7 1 1.5 1s1.5.4 1.5.9c0 .7 2.1 1.9 13.3 7.3 2.2 1 4.7 1.8 5.8 1.8 1 0 1.9.4 1.9 1 0 .5 1.5 1 3.4 1s3.8.4 4.1 1c.3.5 2.3 1 4.4 1 2 0 4.2.5 4.8 1.1.6.6 6.1.8 15.4.6 15.5-.5 22.8-1.4 24.4-2.8.5-.5 2.4-.9 4.2-.9 1.8 0 3.3-.5 3.3-1 0-.6 1.1-1 2.5-1s2.5-.5 2.5-1c0-.6.9-1 1.9-1 1.1 0 2.3-.5 2.6-1 .3-.6 1.4-1 2.4-1s3.7-1.4 5.9-3c2.3-1.7 4.6-3 5.2-3 .5 0 1-.5 1-1 0-.6.4-1 1-1 1.1 0 3.7-2 8.7-6.8 1.9-1.7 3.8-3.2 4.1-3.2.4 0 1.8-1.4 3.2-3.1 1.4-1.6 4-4.6 5.8-6.7 1.9-2 4.1-5.1 4.9-6.7.9-1.7 1.9-3.2 2.2-3.5 1.4-1 7.1-12 7.1-13.6 0-.8.7-2.2 1.5-3 .8-.9 1.5-2.6 1.5-3.9 0-1.4.6-3.9 1.4-5.7 1.9-4.3 4.6-19.4 4.6-25.4 0-6.1-1.9-22.3-2.9-24.9-1.2-3.1-2.9-8.6-3.6-12.3-.4-1.7-1.1-3.2-1.6-3.2s-.9-.9-.9-1.9c0-1.1-.5-2.1-1-2.3-.6-.2-1.2-1.4-1.5-2.7-.2-1.3-1.1-3.1-1.8-4-.8-.9-1.7-2.4-2-3.4-.4-.9-1.1-1.7-1.7-1.7-.5 0-1-.6-1-1.3 0-.7-.9-2.3-2-3.5-1.1-1.2-2-2.4-2-2.8 0-1.5-17.2-18.4-18.7-18.4-.7 0-1.3-.5-1.3-1 0-.6-.5-1-1.1-1-.7 0-1.9-.8-2.8-1.8-.9-.9-2.9-2.4-4.6-3.2-1.6-.8-3.2-1.7-3.5-2-1.2-1.2-5.1-3-6.5-3-.8 0-1.5-.3-1.5-.8 0-.9-7.2-3.2-10-3.2-1.1 0-2-.5-2-1 0-.6-1.5-1-3.4-1s-3.7-.4-4-.9c-.3-.4-3.8-1.1-7.8-1.4-4-.4-9.1-.9-11.3-1.1-2.2-.3-5.8-.1-8 .4z"/><path d="M198.3 301.7c-18 23.9-44.3 66.2-44.3 71.4 0 3.8 5.4 21.6 10.7 34.9 15.3 38.8 34.9 66.7 66.1 94.1 31.5 27.7 61.9 46.6 102.4 64C379.1 585.7 440 599 486 599.4c14.3.1 14.6.1 19.9-2.9 5.9-3.3 10.1-7.8 13.3-14.4 3.1-6.3 3-17-.2-23.6-5.8-11.9-13-16.3-29.4-17.6-43.5-3.6-56.9-5.7-90.1-13.9-38.6-9.6-63.7-19.4-91.6-36-30.4-18.1-58.9-43.7-76.3-68.7-11-15.9-21.7-41.8-26.6-64.8-3-14.1-3.7-38.5-1.6-52.4.9-5.7 1.4-10.6 1.2-10.8-.2-.3-3.1 3.1-6.3 7.4zM36 411c0 .5-1.3 1-2.8 1-3 0-8.2 2-8.2 3.2 0 .5-.7.8-1.5.8s-2.3 1.2-3.2 2.7c-1 1.6-2.6 3.5-3.5 4.3-6 5.4-7.8 19.2-3.6 27.9 1.2 2.5 3.7 6.2 5.5 8.1 1.8 1.9 3.3 3.8 3.3 4.2 0 .5 1.4.8 3.1.8 1.6 0 2.8.4 2.5.9-1.1 1.7 4.9 3.2 12.6 3.2 7.3 0 13.8-1.5 13.8-3.3 0-.5.8-.8 1.8-.8 2.3 0 10.2-9.5 10.9-13.2.3-1.5.9-2.8 1.4-2.8.5 0 .9-3.4.9-7.5 0-6.2-.5-8.5-2.6-12.8-1.5-2.9-3.4-5.9-4.4-6.7-.9-.8-1.9-2.3-2.3-3.3-.3-.9-1.6-1.7-2.7-1.7s-2-.3-2-.8c0-1.2-5.2-3.2-8.2-3.2-1.5 0-2.8-.5-2.8-1 0-.6-1.8-1-4-1s-4 .4-4 1zM561 547.7c-4.1.4-7.9 2.1-10.1 4.5-.9 1-2 1.8-2.4 1.8-1 0-4.5 4-4.5 5.2 0 .4-.6.8-1.4.8-2 0-4.6 8.9-4.6 16s2.6 16 4.6 16c.8 0 1.4.5 1.4 1 0 1.2 5.4 7 6.4 7 .4 0 1.6.9 2.8 2 1.5 1.3 3.6 2 6.4 2 2.4 0 4.6.5 4.9 1 .4.7 1.2.7 2.5 0 1-.5 3.7-1 5.9-1 2.3 0 4.1-.5 4.1-1 0-.6.8-1 1.8-1s2.8-.9 4-2c1.2-1.1 2.6-2 3.1-2 .6 0 1.5-.9 2.1-1.9.5-1.1 1.6-2.5 2.2-3.3 1.6-1.6 3.6-6.7 5.1-12.6.7-3 .7-5.4 0-8.5-1.5-5.8-3.5-10.9-5.1-12.5-.6-.8-1.7-2.2-2.2-3.3-.6-1-1.5-1.9-2.1-1.9-.5 0-1.9-.9-3.1-2-1.2-1.1-3-2-3.9-2-1 0-1.9-.4-2.1-.9-.4-1-10.9-2-15.8-1.4z"/></svg>